HIERARCHY
ROOT Hips
{
	OFFSET 0.000000 0.000000 0.000000
	CHANNELS 6 Xposition Yposition Zposition Xrotation Yrotation Zrotation
	JOINT Spine
	{
		OFFSET 0.000000 3.927069 -5.890590
		CHANNELS 3 Xrotation Yrotation Zrotation
		JOINT Spine1
		{
			OFFSET 0.000000 1.363853 -7.734808
			CHANNELS 3 Xrotation Yrotation Zrotation
			JOINT Spine2
			{
				OFFSET 0.000000 0.684530 -7.824241
				CHANNELS 3 Xrotation Yrotation Zrotation
				JOINT Spine3
				{
					OFFSET 0.000000 0.000000 -7.854112
					CHANNELS 3 Xrotation Yrotation Zrotation
					JOINT Neck
					{
						OFFSET 0.000003 -2.945282 -20.617078
						CHANNELS 3 Xrotation Yrotation Zrotation
						JOINT Head
						{
							OFFSET 0.000000 -1.875282 -10.635358
							CHANNELS 3 Xrotation Yrotation Zrotation
							End Site
							{
								OFFSET 0.000000 0.000025 -12.713866
							}
						}
					}
					JOINT RightShoulder
					{
						OFFSET 2.644473 -4.407433 -14.280157
						CHANNELS 3 Xrotation Yrotation Zrotation
						JOINT RightArm
						{
							OFFSET 13.134213 0.000000 0.000000
							CHANNELS 3 Xrotation Yrotation Zrotation
							JOINT RightForeArm
							{
								OFFSET 23.602241 0.000000 0.000005
								CHANNELS 3 Xrotation Yrotation Zrotation
								JOINT RightHand
								{
									OFFSET 19.807984 0.000000 0.000000
									CHANNELS 3 Xrotation Yrotation Zrotation
									End Site
									{
										OFFSET 5.714670 0.000000 0.000000
									}
								}
							}
						}
					}
					JOINT LeftShoulder
					{
						OFFSET -2.644468 -4.407433 -14.280157
						CHANNELS 3 Xrotation Yrotation Zrotation
						JOINT LeftArm
						{
							OFFSET -13.134213 0.000000 0.000000
							CHANNELS 3 Xrotation Yrotation Zrotation
							JOINT LeftForeArm
							{
								OFFSET -23.602236 0.000000 -0.000005
								CHANNELS 3 Xrotation Yrotation Zrotation
								JOINT LeftHand
								{
									OFFSET -19.807984 0.000000 0.000000
									CHANNELS 3 Xrotation Yrotation Zrotation
									End Site
									{
										OFFSET -5.714670 0.000000 0.000000
									}
								}
							}
						}
					}
				}
			}
		}
	}
	JOINT RightUpLeg
	{
		OFFSET 7.845273 0.000000 2.291867
		CHANNELS 3 Xrotation Yrotation Zrotation
		JOINT RightLeg
		{
			OFFSET -0.000003 0.000000 38.110058
			CHANNELS 3 Xrotation Yrotation Zrotation
			JOINT RightFoot
			{
				OFFSET -0.000003 0.000000 36.544961
				CHANNELS 3 Xrotation Yrotation Zrotation
				JOINT RightToeBase
				{
					OFFSET -0.000000 -13.256514 4.824981
					CHANNELS 3 Xrotation Yrotation Zrotation
					End Site
					{
						OFFSET 0.000000 -6.346749 0.000000
					}
				}
			}
		}
	}
	JOINT LeftUpLeg
	{
		OFFSET -7.845273 0.000000 2.291867
		CHANNELS 3 Xrotation Yrotation Zrotation
		JOINT LeftLeg
		{
			OFFSET -0.000003 0.000000 38.110061
			CHANNELS 3 Xrotation Yrotation Zrotation
			JOINT LeftFoot
			{
				OFFSET -0.000003 0.000000 36.544961
				CHANNELS 3 Xrotation Yrotation Zrotation
				JOINT LeftToeBase
				{
					OFFSET -0.000000 -13.256514 4.824981
					CHANNELS 3 Xrotation Yrotation Zrotation
					End Site
					{
						OFFSET 0.000000 -6.346749 0.000000
					}
				}
			}
		}
	}
}
MOTION
Frames: 11
Frame Time: 0.033333
0.000000 83.271870 0.000000 90.000000 0.000000 -180.000000 0.000000 0.000000 0.000000 0.000000 0.000000 0.000000 0.000000 0.000000 0.000000 0.000000 0.000000 0.000000 0.000000 0.000000 0.000000 0.000000 0.000000 0.000000 0.000000 0.000000 0.000000 0.000000 0.000000 0.000000 0.000000 0.000000 0.000000 0.000000 0.000000 0.000000 0.000000 0.000000 0.000000 0.000000 0.000000 0.000000 0.000000 0.000000 0.000000 0.000000 0.000000 0.000000 0.000000 0.000000 0.000000 0.000000 0.000000 0.000000 0.000000 0.000000 0.000000 0.000000 0.000000 0.000000 0.000000 0.000000 0.000000 0.000000 0.000000 0.000000 0.000000 0.000000 0.000000 0.000000 0.000000 0.000000 
-4.048765 80.358478 17.865860 99.254696 -1.210933 5.152607 -4.394199 3.135000 0.134500 -0.418901 0.283100 -0.149200 0.105201 1.443800 0.102500 0.132602 -0.642700 0.349100 -4.432399 -2.183600 1.233799 -5.816603 1.287000 1.680400 1.688500 7.136997 -1.380901 14.042099 -10.129099 -14.334403 0.000000 0.000000 3.901401 0.059702 20.660499 -0.305496 1.206103 -9.694300 4.744999 5.699696 7.893200 -24.602602 0.000000 -0.000005 16.828804 -0.170202 -18.258199 0.349897 11.069308 8.095300 -9.653999 -40.648911 0.000005 -0.000002 -5.212595 -3.184997 -16.087403 13.159001 0.000001 0.000004 -9.933601 1.317204 -8.824801 -9.557702 0.000001 -0.000001 14.588103 1.884699 -0.723898 0.472100 -0.000000 -0.000001 
-3.375665 80.029286 17.191741 98.421394 -2.961934 4.388307 -3.055199 3.532699 -0.061999 -0.266100 0.527200 -0.186500 0.285401 2.671099 0.093802 0.110899 -0.395500 0.398300 -4.303400 -2.371300 1.557098 -5.310300 1.308799 1.825000 1.501600 6.097300 -0.715801 14.611001 -9.524699 -14.750204 -0.000001 -0.000000 4.625401 -0.080003 20.687803 -0.385295 1.451504 -9.869699 4.884099 5.479297 7.327600 -24.090404 0.000001 -0.000005 16.963306 -0.162405 -18.316700 0.281492 2.646403 9.336200 -10.652298 -28.420706 0.000002 -0.000003 9.814405 -2.040798 -9.377998 8.154496 -0.000001 0.000003 -8.740598 2.105804 -9.353802 -11.067102 0.000001 -0.000001 15.820502 3.167700 0.915703 0.301799 0.000000 0.000000 
-2.570485 80.089995 16.714732 98.260696 -1.888327 4.045208 -2.765299 1.988500 -0.090100 -0.312799 0.525500 -0.141500 0.320300 2.475200 0.013601 0.296300 -0.222101 0.284100 -3.863102 -1.272800 1.372000 -5.109902 1.136400 1.975000 1.506100 5.695001 -0.807501 15.566503 -9.054300 -14.873603 0.000001 0.000000 4.988000 -0.469404 21.466299 -0.410594 1.963503 -8.248098 4.421699 5.657099 6.273300 -23.875699 0.000001 -0.000005 17.526604 -0.339201 -18.925200 0.100493 -3.827900 7.467102 -13.175698 -16.974200 0.000001 -0.000001 11.998302 -0.978999 -2.740201 0.359700 0.000000 0.000000 -8.400400 0.281703 -9.173602 -12.406402 0.000001 -0.000001 16.311403 3.336599 1.106703 0.605998 0.000000 0.000000 
-1.741937 80.454741 16.553437 97.798196 0.629254 4.510807 -2.417199 -0.040500 -0.086100 -0.322499 0.189300 -0.048599 -0.033901 1.046900 0.026200 0.340203 -0.085300 0.134301 -2.802199 0.405800 0.615300 -4.818902 1.084299 1.783600 1.100001 6.664198 -1.626801 16.332300 -9.590900 -14.778005 0.000002 0.000000 4.612700 -0.060200 21.425398 -0.619598 2.008504 -6.171199 2.966298 6.336699 5.972001 -24.033003 0.000002 -0.000004 17.956803 0.171199 -18.583597 0.347291 -6.478300 4.686906 -17.813501 -10.766502 0.000001 -0.000001 8.146304 -1.236599 1.186203 1.603201 0.000000 0.000001 -7.731202 -2.703697 -8.252803 -13.585902 0.000001 -0.000001 16.378503 3.104200 -0.497197 0.481598 0.000000 0.000000 
-1.031499 80.728802 16.652250 96.520191 2.284730 5.247907 -1.674501 -0.929200 -0.166400 -0.309401 -0.135400 0.016400 -0.107001 -0.463100 0.217900 0.382001 -0.157000 0.055900 -1.847098 1.634099 -0.179700 -3.869100 1.097500 1.257301 1.485001 7.822097 -2.759002 15.275301 -9.996501 -14.707307 0.000002 0.000000 3.799000 0.394296 20.194103 -0.753801 1.913804 -5.098700 1.827699 6.519900 6.746698 -24.487511 0.000000 -0.000004 16.845302 0.563500 -16.899397 0.861590 -6.146198 3.188106 -17.421000 -8.396702 0.000001 -0.000001 5.783499 -1.333499 -0.916998 2.994201 0.000000 0.000002 -6.449601 -4.850796 -8.292901 -13.981802 0.000001 -0.000001 16.215307 3.088900 -1.398898 0.506099 0.000000 0.000001 
-0.299217 80.767415 16.775433 95.401504 2.454512 5.539408 -1.214402 -0.870000 -0.172000 -0.365500 -0.098400 0.004500 0.174000 -0.699200 0.239501 0.474802 -0.325100 0.055500 -1.114098 1.213100 -0.310600 -2.756501 1.181499 0.702200 1.823101 7.524199 -3.042702 14.214703 -9.510100 -15.017108 0.000000 0.000000 3.119301 0.913999 20.301998 -0.824901 2.067803 -5.374199 1.843699 5.768299 7.389102 -24.775702 0.000002 -0.000004 14.264205 0.010701 -15.335602 0.835195 -5.796300 2.958905 -13.753201 -6.530303 0.000001 -0.000001 5.158303 -1.692999 -5.013901 2.830301 -0.000000 -0.000001 -5.662002 -5.729196 -9.395305 -13.390802 0.000001 -0.000001 16.017502 3.672499 -0.751998 0.694300 0.000000 0.000001 
0.430271 80.686130 16.743937 95.048702 1.835903 5.311605 -1.040601 -0.761000 -0.062300 -0.298898 0.199100 -0.041500 0.015301 0.312600 0.165601 0.379097 -0.297200 0.145400 -0.243997 -0.268401 0.035799 -2.325600 1.200099 0.150400 1.529401 6.294800 -2.539103 14.658899 -8.936398 -15.495606 0.000002 0.000000 2.593601 0.919399 21.483803 -0.802906 2.038203 -6.621599 2.474298 5.939097 7.386500 -25.186503 -0.000000 -0.000003 11.700500 -0.791104 -14.747596 0.415890 -6.499000 3.312903 -10.032100 -4.478202 0.000000 -0.000001 5.046101 -2.540097 -8.162298 2.602898 -0.000000 -0.000001 -5.822602 -5.704196 -9.943403 -12.308102 0.000000 -0.000002 15.622302 4.270000 -0.037597 0.689598 0.000000 0.000000 
1.074669 80.628480 16.570965 95.639596 1.500915 4.843808 -1.674199 -0.772800 0.058800 -0.315901 0.412500 -0.068000 -0.189001 1.052000 0.203701 0.420000 -0.261700 0.215000 0.288800 -1.126700 0.394199 -2.145001 1.040800 -0.111400 1.067299 5.782800 -2.025101 15.673602 -8.948597 -15.593902 0.000003 0.000001 2.050601 0.946593 21.525696 -0.869696 1.708602 -7.496998 2.747700 7.407298 6.789800 -25.471406 -0.000000 -0.000003 10.422800 -0.936699 -14.657097 -0.107605 -8.469800 3.401003 -8.547299 -2.171901 0.000001 0.000000 4.741101 -3.060899 -9.026000 2.622797 0.000000 0.000000 -6.985601 -5.726596 -9.430203 -11.247002 0.000000 -0.000001 15.166706 4.578000 -0.203599 0.770898 0.000000 0.000000 
1.584955 80.634065 16.492223 95.808100 1.628530 4.884607 -1.956301 -0.874200 0.057199 -0.393299 0.367501 -0.059200 -0.261600 0.911700 0.138501 0.492501 -0.233100 0.167800 0.460502 -0.756900 0.290100 -1.632901 0.761500 0.061599 0.914000 6.092397 -2.133001 15.408801 -8.814800 -15.461105 -0.000001 -0.000000 1.809100 1.292400 21.100599 -0.902505 1.773903 -7.215497 2.472499 8.180297 6.122101 -25.562801 -0.000000 -0.000003 10.683101 -0.352700 -15.167098 -0.301103 -9.697202 3.113603 -10.129100 -0.270501 0.000000 0.000000 4.237800 -3.034999 -7.547301 2.755299 0.000000 0.000000 -7.563303 -6.114597 -9.039103 -10.637201 0.000000 -0.000001 14.922804 4.747399 -0.737398 0.763799 0.000000 0.000000 
1.930141 80.647014 16.476980 95.147005 1.666234 5.265010 -1.362100 -1.090200 -0.008200 -0.382300 0.219000 -0.039899 -0.311799 0.690600 -0.116700 0.427599 -0.103500 0.070101 0.437701 -0.090000 0.003700 -1.035501 0.672700 0.336001 1.017700 6.344700 -2.436001 14.805300 -8.410601 -15.427307 -0.000004 -0.000000 2.103800 1.256302 21.347300 -1.004801 1.990702 -6.567199 1.954599 7.722699 5.961600 -25.292707 0.000001 -0.000003 11.589102 0.694198 -15.801000 0.099397 -9.406201 2.935204 -11.381900 0.555300 0.000000 0.000000 4.018002 -2.981099 -6.720098 2.781800 0.000000 0.000000 -7.158902 -6.374296 -9.145504 -10.311102 0.000001 -0.000002 14.669799 4.995200 -1.034198 0.777499 0.000000 0.000000 
